<svg width="180" height="180" viewBox="0 0 180 180" fill="none" xmlns="http://www.w3.org/2000/svg">
<rect width="180" height="180" rx="90" fill="url(#paint0_radial_107_14)"/>
<rect width="180" height="180" rx="90" fill="url(#paint1_linear_107_14)" fill-opacity="0.9"/>
<path d="M46.1861 110.555V100.182H48.6805V108.373H52.6514V110.555H46.1861Z" fill="white"/>
<path d="M92.6707 110.555L91.8745 108.52H87.9012L87.1469 110.555H84.4504L88.7565 100.182H91.1622L95.4239 110.555H92.6707ZM89.915 102.952L88.6111 106.512H91.1918L89.915 102.952Z" fill="white"/>
<path d="M135.83 107.536C135.83 108.102 135.719 108.58 135.497 108.963C135.276 109.35 134.98 109.658 134.613 109.893C134.245 110.127 133.826 110.296 133.358 110.398C132.89 110.5 132.409 110.553 131.916 110.553H127.827V100.18H131.914C132.31 100.18 132.715 100.222 133.131 100.304C133.545 100.387 133.922 100.529 134.263 100.73C134.6 100.93 134.876 101.201 135.088 101.542C135.3 101.884 135.406 102.32 135.406 102.845C135.406 103.421 135.251 103.897 134.943 104.273C134.632 104.649 134.228 104.92 133.725 105.085V105.115C134.016 105.165 134.287 105.254 134.544 105.386C134.8 105.518 135.022 105.688 135.212 105.892C135.401 106.096 135.549 106.335 135.66 106.609C135.774 106.888 135.83 107.195 135.83 107.536ZM133.018 103.187C133.018 102.835 132.885 102.579 132.619 102.417C132.352 102.255 131.958 102.175 131.438 102.175H130.22V104.315H131.554C132.017 104.315 132.377 104.22 132.633 104.029C132.89 103.837 133.018 103.558 133.018 103.187ZM133.351 107.302C133.351 106.873 133.19 106.574 132.872 106.408C132.554 106.241 132.128 106.158 131.598 106.158H130.22V108.532H131.613C131.805 108.532 132.007 108.515 132.214 108.48C132.421 108.445 132.611 108.385 132.779 108.296C132.946 108.209 133.084 108.084 133.19 107.922C133.296 107.765 133.351 107.556 133.351 107.302Z" fill="white"/>
<path d="M135.724 61H131.418V95.5763H135.724V61Z" fill="white"/>
<path d="M113.501 91.2767H127.245V95.5763H109.198V61H113.501V91.2767Z" fill="white"/>
<path fill-rule="evenodd" clip-rule="evenodd" d="M40.894 119C67.8153 119 80.8037 90.7505 82.6183 86.4672L97.3875 86.4808C99.2237 90.81 112.213 119 139.106 119C164.156 119 166 98.04 166 94.4154C166 85.7365 159.685 78.1561 150.913 78.445C142.357 78.7265 140.092 85.4674 140.092 88.7183C140.092 92.156 142.283 95.5887 146.205 95.5887C149.784 95.5887 151.603 92.9357 151.393 90.6165C151.295 89.5354 150.528 87.7692 148.411 87.7692C146.981 87.7692 146.432 89.0073 146.459 89.6973C146.488 90.472 147.114 91.0375 147.659 91.0375C147.97 91.0375 148.539 90.903 148.534 90.2603C148.529 89.6176 148.024 89.6599 148.024 89.6599C148.024 89.6599 148.455 89.7048 148.49 90.1183C148.512 90.4023 148.396 90.9329 147.711 90.9329C146.809 90.9329 146.557 90.0286 146.584 89.5852C146.636 88.7033 147.568 87.9386 148.433 87.966C150.908 88.0407 151.273 90.4621 150.856 91.8222C150.08 94.3531 147.45 95.3097 145.414 94.956C143.848 94.6845 140.733 93.3567 140.733 88.9275C140.733 81.0034 147.979 79.2546 151.472 79.1849C157.415 79.0653 165.046 84.4087 165.046 94.3631C165.046 97.046 164.033 117.134 138.896 117.134C116.549 117.134 103.788 91.0001 101.931 86.9198C100.074 82.8395 97.8912 76.6465 96.6366 73.2238C95.5176 70.1697 92.439 61 92.439 61H87.6868C87.6868 61 84.3419 70.6306 83.1539 73.8391C82.1028 76.682 79.0603 84.4594 78.2785 86.4554C77.5848 88.0581 64.6748 117.134 41.1035 117.134C15.9669 117.134 14.9564 97.046 14.9564 94.3631C14.9564 84.4087 22.5875 79.0653 28.5303 79.1849C32.023 79.2547 39.2697 81.0034 39.2697 88.9276C39.2697 93.3567 36.1541 94.6845 34.5889 94.956C32.5529 95.3097 29.9229 94.3532 29.1465 91.8222C28.73 90.4621 29.0948 88.0407 31.5695 87.966C32.4346 87.9386 33.3663 88.7034 33.4181 89.5852C33.4452 90.0286 33.1938 90.9329 32.2917 90.9329C31.6064 90.9329 31.4906 90.4023 31.5128 90.1183C31.5473 89.7048 31.9786 89.6599 31.9786 89.6599C31.9786 89.6599 31.4733 89.6176 31.4684 90.2603C31.4635 90.903 32.0329 91.0375 32.3434 91.0375C32.8882 91.0375 33.5142 90.472 33.5438 89.6973C33.5709 89.0073 33.0213 87.7692 31.5916 87.7692C29.4743 87.7692 28.7078 89.5354 28.6092 90.6165C28.3997 92.9357 30.2187 95.5887 33.7977 95.5887C37.7193 95.5887 39.9105 92.156 39.9105 88.7183C39.9105 85.4674 37.6453 78.7265 29.0898 78.4451C20.3149 78.1511 14 85.7315 14 94.4104C14 98.04 15.8437 119 40.894 119ZM84.4504 82.2191H95.3722L89.9347 66.6174L84.4504 82.2191Z" fill="white"/>
<path d="M46.2255 61H56.7948C58.7667 61 60.7385 61.3263 62.7104 61.9765C64.6823 62.6292 66.4644 63.653 68.0592 65.053C69.6539 66.453 70.943 68.2441 71.929 70.4238C72.9149 72.606 73.4079 75.2266 73.4079 78.2857C73.4079 81.2476 72.9149 83.8134 71.929 85.9782C70.943 88.1429 69.6539 89.934 68.0592 91.3489C66.4644 92.7664 64.6823 93.8226 62.7104 94.5226C60.7385 95.2226 58.7667 95.5714 56.7948 95.5714H46.2255V61ZM50.5316 91.3265H55.9247C57.7807 91.3265 59.4963 91.0326 61.0787 90.4472C62.6587 89.8618 64.0217 89.0148 65.1654 87.9088C66.3116 86.8027 67.2014 85.4351 67.8398 83.8059C68.4782 82.1792 68.7961 80.3383 68.7961 78.2882C68.7961 76.1384 68.4757 74.2526 67.8398 72.6234C67.2014 70.9967 66.3091 69.6366 65.1654 68.5455C64.0193 67.4544 62.6562 66.6249 61.0787 66.0544C59.4987 65.484 57.7807 65.2 55.9247 65.2H50.5316V91.3265Z" fill="white"/>
<defs>
<radialGradient id="paint0_radial_107_14" cx="0" cy="0" r="1" gradientUnits="userSpaceOnUse" gradientTransform="translate(90 86.5) rotate(-90) scale(86.5 158.413)">
<stop stop-color="#1E5779"/>
<stop offset="1" stop-color="#091C26"/>
</radialGradient>
<linearGradient id="paint1_linear_107_14" x1="90" y1="0" x2="90" y2="180" gradientUnits="userSpaceOnUse">
<stop stop-color="#091C26"/>
<stop offset="0.672554" stop-color="#1E5779"/>
</linearGradient>
</defs>
</svg>
